<svg width="205" height="49" viewBox="0 0 205 49" fill="none" xmlns="http://www.w3.org/2000/svg">
<g clip-path="url(#clip0_205_89)">
<path d="M50.1127 24.5C50.1127 38.0503 38.9143 49 25.0563 49C11.1984 49 0 38.0503 0 24.5C0 10.9497 11.1984 0 25.0563 0C38.9143 0 50.1127 10.9497 50.1127 24.5Z" fill="white"/>
<path d="M25.2663 1.36871C12.1782 1.36871 1.53979 11.7025 1.53979 24.5C1.53979 37.2975 12.1082 47.6313 25.1963 47.6313C38.2844 47.6313 48.8529 37.2975 48.8529 24.5C48.9229 11.7025 38.2844 1.36871 25.2663 1.36871ZM25.5463 43.4567C14.8378 43.4567 6.15912 34.9707 6.15912 24.5C6.15912 14.0293 14.8378 5.54329 25.5463 5.54329C36.2547 5.54329 44.9334 14.0293 44.9334 24.5C44.9334 34.9707 36.2547 43.4567 25.5463 43.4567Z" fill="#72AF43"/>
<path d="M28.5558 26.8953C29.8856 26.8953 31.3554 27.0321 32.5452 27.169C33.2451 27.2374 33.8051 27.3743 34.225 27.5112C34.435 27.5796 34.6449 27.6481 34.7849 27.7165C34.9249 27.7849 35.1349 27.9218 35.1349 28.1955C35.1349 28.4693 34.9249 28.6062 34.7849 28.6746C34.6449 28.743 34.435 28.8115 34.225 28.8799C33.8051 29.0168 33.1752 29.0852 32.5452 29.2221C31.2154 29.4274 29.4657 29.4958 28.0659 29.4958C27.436 29.4958 26.9461 29.4958 26.5261 29.4274C26.4561 31.6858 26.0362 32.0279 25.1963 32.0279C24.3564 32.0279 23.9365 31.7542 23.8665 29.4274C23.3766 29.4958 22.8867 29.4958 22.1868 29.4958C20.717 29.4958 19.0372 29.3589 17.7074 29.2221C17.0075 29.1536 16.4476 29.0168 16.0277 28.8799C15.8177 28.8115 15.6077 28.743 15.4677 28.6746C15.3278 28.6062 15.1178 28.4693 15.1178 28.1955C15.1178 27.9218 15.3278 27.7849 15.4677 27.7165C15.6077 27.6481 15.8177 27.5796 16.0277 27.5112C16.4476 27.3743 17.0775 27.3059 17.7074 27.169C18.9672 27.0321 20.577 26.8953 21.9068 26.8953C20.9969 26.0056 20.0871 24.9791 19.3872 24.0894C18.9672 23.5419 18.6173 23.0629 18.4073 22.7207C18.2673 22.5154 18.1973 22.3785 18.1973 22.1732C18.1973 22.0363 18.1274 21.7626 18.3373 21.5573C18.5473 21.352 18.8273 21.4204 18.9672 21.4204C19.1072 21.4888 19.3172 21.5573 19.5272 21.6257C19.9471 21.831 20.437 22.1732 20.9269 22.5838C21.8368 23.2682 22.9567 24.2263 23.9365 25.1159C23.9365 23.7472 24.0765 22.2416 24.2165 21.0098C24.2865 20.3254 24.4264 19.7779 24.5664 19.3673C24.6364 19.162 24.7064 18.9567 24.7764 18.8198C24.8464 18.683 24.9864 18.4777 25.2663 18.4777C25.5463 18.4777 25.6863 18.683 25.7562 18.8198C25.8262 18.9567 25.8962 19.162 25.9662 19.3673C26.1062 19.7779 26.1762 20.3939 26.3162 21.0098C26.4561 22.2416 26.5961 23.8157 26.5961 25.1159C27.576 24.1578 28.7658 23.1313 29.8156 22.3785C30.3756 21.9679 30.8655 21.6257 31.2154 21.4204C31.4254 21.2835 31.5654 21.2151 31.7754 21.2151C31.9153 21.1467 32.1953 21.1467 32.4053 21.352C32.6152 21.5573 32.5452 21.831 32.5452 21.9679C32.4753 22.1048 32.4053 22.3101 32.3353 22.5154C32.1253 22.926 31.7754 23.405 31.3554 23.8841C30.4456 24.8422 29.4657 25.9372 28.5558 26.8953Z" fill="#72AF43"/>
<path d="M11.2683 20.3939L25.2663 10.1969L39.1942 20.4623V32.7123H36.7446L36.6746 21.6941L25.2663 13.2081L13.718 21.6257V32.7123H11.2683V20.3939Z" fill="#231F20"/>
<path fill-rule="evenodd" clip-rule="evenodd" d="M75.7288 17.7933H69.7797L69.4298 18.8198C68.5899 17.9301 67.4001 17.5195 66.0003 17.5195C62.0109 17.5195 58.3014 20.3938 58.3014 24.2947C58.3014 26.8952 59.9812 28.743 63.1307 28.743C64.3905 28.743 65.1604 28.4008 65.9303 28.0586C64.8804 31.0698 63.7606 34.0125 61.5209 34.0125C61.101 34.0125 60.821 33.9441 60.4011 33.8072C61.241 33.8072 62.3608 32.7123 62.3608 31.6173C62.3608 30.4539 61.171 29.7011 59.9112 29.7011C58.3014 29.7011 57.1116 30.7276 57.1116 32.1648C57.1116 34.3547 59.3512 35.5866 62.3608 35.5866C66.8401 35.5866 69.9197 33.1913 71.2495 29.7011L75.7288 17.7933ZM68.5199 20.5307C68.5199 22.4469 66.5602 26.8952 64.7405 26.8952C64.0406 26.8952 63.7606 26.4162 63.7606 25.6634C63.7606 23.1997 66.0703 19.2989 67.61 19.2989C68.1 19.2989 68.5199 19.8463 68.5199 20.5307Z" fill="#72AF43"/>
<path d="M92.1765 22.926L90.7067 22.4469C90.1468 23.9525 88.747 25.6634 87.6271 25.6634C87.2772 25.6634 87.0672 25.4581 87.0672 25.1844C87.0672 24.3631 88.747 22.3785 88.747 20.1201C88.747 18.3408 87.4171 17.588 85.4574 17.588C84.3376 17.588 83.7077 17.7933 82.5879 17.7933C81.748 17.7933 81.1881 17.588 81.1881 16.9721C81.1881 16.4246 81.258 15.8771 81.328 15.2612H79.7883C79.5783 17.2458 78.8084 19.7095 77.8985 22.0363C76.9187 24.6369 75.3089 26.0056 73.2092 26.9637L73.9091 28.3324C76.3588 27.3059 78.2485 25.2528 79.4383 22.3785C79.8583 21.4204 80.3482 20.0517 80.5582 19.2304H81.748C82.5879 19.2304 82.9378 19.5042 82.9378 20.0517C82.9378 21.0782 80.9081 23.6103 80.9081 25.8003C80.9081 27.648 82.7278 28.743 84.5476 28.743C87.9071 28.743 91.0566 26.0056 92.1765 22.926Z" fill="#72AF43"/>
<path fill-rule="evenodd" clip-rule="evenodd" d="M109.534 23.405L108.204 22.4469C107.854 23.2681 106.384 24.0209 105.475 24.0209C105.545 23.4734 105.615 23.1997 105.615 22.5838C105.615 19.4357 103.515 17.5195 99.1755 17.5195C94.6261 17.5195 90.4268 19.7779 90.4268 23.9525C90.4268 27.0321 93.3663 28.743 97.2858 28.743C100.365 28.743 102.885 27.7849 104.495 25.7318C106.454 25.7318 109.044 24.7053 109.534 23.405ZM101.205 20.6676C100.085 21.1466 99.0355 22.0363 99.0355 23.405C99.0355 24.2262 99.3854 24.7737 100.085 25.2528C99.5254 26.2109 98.8955 27.3058 97.6357 27.3058C96.5859 27.3058 96.0259 26.8952 96.0259 25.595C96.0259 23.405 97.8457 18.8198 99.9454 18.8198C100.785 18.8882 101.345 19.641 101.205 20.6676Z" fill="#72AF43"/>
<path d="M131.791 22.5154L130.321 22.0363C129.901 23.1313 129.131 24.5 127.941 24.5C127.591 24.5 127.311 24.3631 127.031 24.1578C127.801 22.9944 128.921 20.9414 128.921 19.2305C128.921 18.4777 128.501 17.6564 127.801 17.6564C126.192 17.6564 125.072 20.6676 125.072 22.8576V24.1578C124.512 24.7738 123.392 25.7319 122.622 25.7319C122.202 25.7319 121.922 25.5265 121.922 24.9791C121.922 24.5684 122.132 24.1578 122.202 23.8157L124.442 17.8617H118.493L116.953 21.9679C116.323 23.7472 115.063 25.6634 113.873 25.6634C113.453 25.6634 113.243 25.4581 113.243 24.9791C113.243 24.5684 113.453 24.021 113.733 23.405L115.763 17.8617H109.884L107.854 23.405C107.504 24.2947 107.364 24.8422 107.364 25.8003C107.364 27.7849 109.044 28.8799 110.864 28.8799C112.893 28.8799 114.573 27.7165 115.903 26.6215C116.393 28.0587 117.793 28.8799 119.472 28.8799C122.972 28.8799 125.912 25.595 125.912 25.595C126.541 26.0056 127.101 26.2793 127.871 26.2793C129.761 26.1425 131.091 24.2947 131.791 22.5154Z" fill="#72AF43"/>
<path d="M144.669 22.926L143.199 22.4469C142.639 23.9525 141.239 25.6634 140.12 25.6634C139.77 25.6634 139.56 25.4581 139.56 25.1844C139.56 24.3631 141.239 22.3785 141.239 20.1201C141.239 18.3408 139.91 17.588 137.95 17.588C136.83 17.588 136.2 17.7933 135.08 17.7933C134.24 17.7933 133.68 17.588 133.68 16.9721C133.68 16.4246 133.75 15.8771 133.82 15.2612H132.281C132.071 17.2458 131.301 19.7095 130.391 22.0363C129.411 24.6369 129.341 24.3631 127.311 25.3212L128.361 26.0056C130.811 24.9106 130.741 25.3212 131.931 22.5154C132.351 21.5573 132.841 20.1885 133.051 19.3673H134.24C135.08 19.3673 135.43 19.6411 135.43 20.1885C135.43 21.2151 133.401 23.7472 133.401 25.9371C133.401 27.7849 135.22 28.8799 137.04 28.8799C140.33 28.743 143.549 26.0056 144.669 22.926Z" fill="#72AF43"/>
<path fill-rule="evenodd" clip-rule="evenodd" d="M162.026 23.405L160.696 22.4469C160.347 23.2681 158.877 24.0209 157.967 24.0209C158.037 23.4734 158.107 23.1997 158.107 22.5838C158.107 19.4357 156.007 17.5195 151.668 17.5195C147.118 17.5195 142.919 19.7779 142.919 23.9525C142.919 27.0321 145.859 28.743 149.778 28.743C152.858 28.743 155.377 27.7849 156.987 25.7318C158.947 25.7318 161.536 24.7053 162.026 23.405ZM153.628 20.6676C152.508 21.1466 151.458 22.0363 151.458 23.405C151.458 24.2262 151.808 24.7737 152.508 25.2528C151.948 26.2109 151.318 27.3058 150.058 27.3058C149.008 27.3058 148.448 26.8952 148.448 25.595C148.448 23.405 150.268 18.8198 152.368 18.8198C153.278 18.8882 153.837 19.641 153.628 20.6676Z" fill="#72AF43"/>
<path fill-rule="evenodd" clip-rule="evenodd" d="M179.524 23.405L178.194 22.4469C177.844 23.2681 176.374 24.0209 175.464 24.0209C175.534 23.4734 175.604 23.1997 175.604 22.5838C175.604 19.4357 173.505 17.5195 169.165 17.5195C164.616 17.5195 160.417 19.7779 160.417 23.9525C160.417 27.0321 163.356 28.743 167.276 28.743C170.355 28.743 172.875 27.7849 174.484 25.7318C176.444 25.7318 178.964 24.7053 179.524 23.405ZM171.125 20.6676C170.005 21.1466 168.955 22.0363 168.955 23.405C168.955 24.2262 169.305 24.7737 170.005 25.2528C169.445 26.2109 168.815 27.3058 167.555 27.3058C166.506 27.3058 165.946 26.8952 165.946 25.595C165.946 23.405 167.765 18.8198 169.865 18.8198C170.775 18.8882 171.335 19.641 171.125 20.6676Z" fill="#72AF43"/>
<path d="M205 22.926L203.53 22.4469C203.04 23.8841 201.361 25.7318 200.591 25.7318C200.311 25.7318 200.101 25.5265 200.101 25.1159C200.101 24.0894 201.361 22.5838 201.361 20.8044C201.361 18.9567 199.751 17.5195 197.231 17.5195C194.851 17.5195 193.802 18.3408 192.542 19.4357C191.702 18.2723 190.582 17.5195 188.622 17.5195C186.733 17.5195 185.613 18.2039 184.703 18.8198L185.053 17.7933H179.734L175.744 28.5377H181.693L183.723 23.1313C184.353 21.4204 185.123 20.0517 186.103 20.0517C186.593 20.0517 186.943 20.3254 186.943 20.8729C186.943 21.3519 186.873 21.6257 186.733 22.0363L184.353 28.5377H190.232L192.192 23.1313C192.682 21.7625 193.662 20.1201 194.641 20.1201C195.131 20.1201 195.341 20.3938 195.341 20.8044C195.341 21.9679 193.802 23.9525 193.802 25.9371C193.802 27.7165 195.411 28.743 197.511 28.743C200.871 28.743 203.88 25.9371 205 22.926Z" fill="#72AF43"/>
<path d="M81.888 41.609C81.888 43.1145 81.0481 43.9358 79.2984 43.9358C78.5985 43.9358 78.1086 43.7305 77.6886 43.2514C77.2687 42.8408 77.0587 42.2933 77.0587 41.609H78.2485C78.2485 41.9511 78.3885 42.2249 78.5985 42.4986C78.8085 42.7039 79.1584 42.8408 79.5084 42.8408C79.8583 42.8408 80.1383 42.7724 80.3482 42.5671C80.6282 42.3617 80.6982 42.1564 80.6982 41.8143C80.6982 41.4721 80.5582 41.1983 80.3482 41.0615C80.2083 40.9246 79.9283 40.8562 79.5084 40.7193C78.8085 40.5824 78.3185 40.4455 78.2485 40.3771C77.5486 40.1034 77.1987 39.4874 77.1987 38.6662C77.1987 37.9819 77.4087 37.5028 77.7586 37.0922C78.1786 36.75 78.6685 36.5447 79.3684 36.5447C80.2782 36.5447 80.9781 36.8185 81.3281 37.4344C81.5381 37.7766 81.678 38.1872 81.678 38.5978C81.678 38.6662 81.678 38.7347 81.678 38.7347H80.5582C80.5582 38.3925 80.4182 38.1187 80.2083 37.9134C79.9983 37.7081 79.7183 37.5712 79.3684 37.5712C78.6685 37.5712 78.3185 37.9134 78.3185 38.5293C78.3185 38.94 78.5285 39.2821 79.0184 39.419C79.1584 39.4874 79.5783 39.5559 80.1383 39.6928C80.6982 39.8296 81.1181 40.0349 81.3981 40.3087C81.748 40.6509 81.888 41.0615 81.888 41.609Z" fill="white"/>
<path d="M86.9972 43.7305H82.5879V36.75H86.8573V37.845H83.8477V39.5559H86.6473V40.6509H83.8477V42.6355H86.9972V43.7305Z" fill="white"/>
<path d="M92.3865 41.5405C92.3865 42.2249 92.1765 42.8408 91.8266 43.2514C91.4066 43.7305 90.8467 43.9358 90.1468 43.9358C89.4469 43.9358 88.887 43.7305 88.4671 43.2514C88.0471 42.7724 87.8372 42.2249 87.8372 41.5405V36.75H89.027V41.6774C89.027 42.4302 89.3769 42.7724 90.1468 42.7724C90.9167 42.7724 91.2667 42.4302 91.2667 41.6774V36.75H92.4565V41.5405H92.3865Z" fill="white"/>
<path d="M99.8054 43.7305H95.396V36.75H99.6654V37.845H96.5858V39.5559H99.3854V40.6509H96.5858V42.6355H99.7354V43.7305H99.8054Z" fill="white"/>
<path d="M105.055 41.609C105.055 43.1145 104.215 43.9358 102.465 43.9358C101.765 43.9358 101.275 43.7305 100.855 43.2514C100.435 42.8408 100.225 42.2933 100.225 41.609H101.415C101.415 41.9511 101.555 42.2249 101.765 42.4986C101.975 42.7039 102.325 42.8408 102.675 42.8408C103.025 42.8408 103.305 42.7724 103.515 42.5671C103.795 42.3617 103.865 42.1564 103.865 41.8143C103.865 41.4721 103.725 41.1983 103.515 41.0615C103.375 40.9246 103.095 40.8562 102.675 40.7193C101.975 40.5824 101.485 40.4455 101.415 40.3771C100.715 40.1034 100.365 39.4874 100.365 38.6662C100.365 37.9819 100.575 37.5028 100.925 37.0922C101.345 36.75 101.835 36.5447 102.535 36.5447C103.445 36.5447 104.145 36.8185 104.495 37.4344C104.705 37.7766 104.845 38.1872 104.845 38.5978C104.845 38.6662 104.845 38.7347 104.845 38.7347H103.725C103.725 38.3925 103.585 38.1187 103.375 37.9134C103.165 37.7081 102.885 37.5712 102.535 37.5712C101.835 37.5712 101.485 37.9134 101.485 38.5293C101.485 38.94 101.695 39.2821 102.185 39.419C102.325 39.4874 102.745 39.5559 103.305 39.6928C103.865 39.8296 104.285 40.0349 104.565 40.3087C104.845 40.6509 105.055 41.0615 105.055 41.609Z" fill="white"/>
<path d="M110.164 38.94C110.164 39.419 110.094 39.7612 110.024 40.0349C109.674 40.8562 109.184 41.2668 108.414 41.2668H106.874V43.7305H105.685V36.75H108.274C109.184 36.75 109.744 37.1606 110.024 37.9134C110.164 38.1187 110.164 38.5294 110.164 38.94ZM108.904 38.8715C108.904 38.5978 108.834 38.3241 108.694 38.1872C108.554 37.9819 108.344 37.845 108.064 37.845H106.874V40.1034H108.134C108.414 40.1034 108.554 39.9665 108.694 39.6243C108.904 39.419 108.904 39.1453 108.904 38.8715Z" fill="white"/>
<path d="M115.903 43.7305H114.713L114.293 42.2249H112.194L111.774 43.7305H110.514L112.544 36.75H113.943L115.903 43.7305ZM113.943 41.1299L113.173 38.3925L112.474 41.1299H113.943Z" fill="white"/>
<path d="M117.303 37.5713C117.863 37.0238 118.563 36.75 119.473 36.75C120.662 36.75 121.502 37.1606 122.062 37.9134C122.342 38.3241 122.552 38.8031 122.552 39.2137H121.082C121.012 38.8715 120.872 38.6662 120.732 38.4609C120.452 38.1872 120.102 37.9819 119.543 37.9819C118.983 37.9819 118.633 38.1872 118.283 38.5978C118.003 39.0084 117.863 39.6243 117.863 40.3771C117.863 41.1299 118.003 41.7458 118.353 42.088C118.703 42.4302 119.053 42.6355 119.543 42.6355C120.032 42.6355 120.452 42.4986 120.732 42.1565C120.872 41.9511 121.012 41.6774 121.082 41.3352H122.552C122.412 42.088 122.132 42.7039 121.572 43.183C121.082 43.662 120.452 43.8673 119.683 43.8673L119.403 44.278C119.543 44.278 119.613 44.2095 119.613 44.2095C119.683 44.2095 119.683 44.2095 119.753 44.2095C120.032 44.2095 120.242 44.278 120.382 44.4148C120.522 44.5517 120.592 44.6886 120.592 44.9623C120.592 45.2361 120.452 45.5098 120.242 45.6467C120.032 45.7835 119.683 45.9204 119.333 45.9204C119.193 45.9204 118.983 45.9204 118.773 45.852C118.633 45.852 118.493 45.7836 118.353 45.7151L118.563 45.3045C118.773 45.3729 118.843 45.3729 118.913 45.4414C119.053 45.5098 119.193 45.5098 119.263 45.5098C119.473 45.5098 119.613 45.4414 119.683 45.3729C119.753 45.3045 119.822 45.2361 119.822 45.0992C119.822 44.9623 119.753 44.8939 119.683 44.8254C119.613 44.757 119.473 44.757 119.403 44.757C119.333 44.757 119.263 44.757 119.193 44.757C119.123 44.757 119.053 44.757 118.983 44.8254L118.773 44.6201L119.193 43.9358C118.423 43.9358 117.793 43.5936 117.233 42.9777C116.673 42.3618 116.393 41.4721 116.393 40.3771C116.323 39.1453 116.603 38.1872 117.303 37.5713Z" fill="white"/>
<path d="M128.711 40.3087C128.711 41.2668 128.501 42.088 128.081 42.7724C127.591 43.5936 126.821 43.9358 125.912 43.9358C124.932 43.9358 124.232 43.5252 123.742 42.7724C123.322 42.088 123.112 41.2668 123.112 40.3087C123.112 39.3506 123.322 38.4609 123.742 37.845C124.232 37.0238 125.002 36.6816 125.912 36.6816C126.891 36.6816 127.591 37.0922 128.081 37.845C128.501 38.4609 128.711 39.2821 128.711 40.3087ZM127.451 40.3087C127.451 39.6243 127.381 39.0768 127.171 38.6662C126.891 38.1187 126.471 37.7766 125.912 37.7766C125.352 37.7766 124.932 38.0503 124.652 38.6662C124.442 39.0768 124.372 39.6243 124.372 40.3087C124.372 40.993 124.442 41.5405 124.652 41.9511C124.932 42.4986 125.352 42.8408 125.912 42.8408C126.471 42.8408 126.891 42.5671 127.171 41.9511C127.311 41.4721 127.451 40.9246 127.451 40.3087Z" fill="white"/>
<path d="M135.92 38.94C135.92 39.419 135.85 39.7612 135.78 40.0349C135.43 40.8562 134.94 41.2668 134.17 41.2668H132.631V43.7305H131.441V36.75H134.03C134.94 36.75 135.5 37.1606 135.78 37.9134C135.85 38.1187 135.92 38.5294 135.92 38.94ZM134.66 38.8715C134.66 38.5978 134.59 38.3241 134.45 38.1872C134.31 37.9819 134.1 37.845 133.82 37.845H132.631V40.1034H133.89C134.17 40.1034 134.31 39.9665 134.45 39.6243C134.59 39.419 134.66 39.1453 134.66 38.8715Z" fill="white"/>
<path d="M141.659 43.7305H140.469L140.049 42.2249H137.95L137.53 43.7305H136.27L138.3 36.75H139.7L141.659 43.7305ZM139.7 41.1299L138.93 38.3925L138.23 41.1299H139.7Z" fill="white"/>
<path d="M147.328 43.7305H145.929L144.669 40.993H143.479V43.7305H142.289V36.75H145.229C145.789 36.75 146.209 36.9553 146.559 37.366C146.839 37.7081 146.978 38.1872 146.978 38.8031C146.978 39.7612 146.559 40.4456 145.719 40.7877L147.328 43.7305ZM145.719 38.94C145.719 38.1872 145.509 37.845 145.019 37.845H143.479V39.8981H145.089C145.299 39.8981 145.439 39.7612 145.579 39.5559C145.719 39.3506 145.719 39.1453 145.719 38.94Z" fill="white"/>
<path d="M152.858 43.7305H151.668L151.248 42.2249H149.148L148.728 43.7305H147.468L149.498 36.75H150.898L152.858 43.7305ZM150.898 41.1299L150.128 38.3925L149.428 41.1299H150.898Z" fill="white"/>
<path d="M160.346 41.3352C160.346 42.088 160.137 42.7039 159.647 43.183C159.157 43.662 158.597 43.9358 157.827 43.9358C156.847 43.9358 156.147 43.5252 155.727 42.7724C155.377 42.1565 155.167 41.3352 155.167 40.3087C155.167 39.3506 155.377 38.5294 155.727 37.845C156.217 37.0238 156.917 36.6132 157.827 36.6132C158.527 36.6132 159.157 36.8869 159.577 37.366C159.997 37.845 160.276 38.3925 160.276 39.1453H159.157C159.157 38.8031 159.017 38.5294 158.877 38.3241C158.667 37.9819 158.317 37.7766 157.827 37.7766C156.847 37.7766 156.427 38.6662 156.427 40.4456C156.427 41.0615 156.497 41.5405 156.637 41.9511C156.847 42.5671 157.197 42.8408 157.687 42.8408C158.527 42.8408 159.017 42.3618 159.087 41.4037H160.346V41.3352Z" fill="white"/>
<path d="M166.156 43.7305H164.756L163.496 40.993H162.376V43.7305H161.186V36.75H164.126C164.686 36.75 165.106 36.9553 165.456 37.366C165.736 37.7081 165.876 38.1872 165.876 38.8031C165.876 39.7612 165.456 40.4456 164.616 40.7877L166.156 43.7305ZM164.616 38.94C164.616 38.1872 164.406 37.845 163.916 37.845H162.376V39.8981H163.986C164.196 39.8981 164.336 39.7612 164.476 39.5559C164.546 39.3506 164.616 39.1453 164.616 38.94Z" fill="white"/>
<path d="M171.055 43.7305H166.646V36.75H170.915V37.845H167.905V39.5559H170.705V40.6509H167.905V42.6355H171.055V43.7305V43.7305Z" fill="white"/>
<path d="M176.304 41.609C176.304 43.1145 175.464 43.9358 173.715 43.9358C173.015 43.9358 172.525 43.7305 172.105 43.2514C171.685 42.8408 171.475 42.2933 171.475 41.609H172.665C172.665 41.9511 172.805 42.2249 173.015 42.4986C173.225 42.7039 173.575 42.8408 173.924 42.8408C174.274 42.8408 174.554 42.7724 174.764 42.5671C175.044 42.3617 175.114 42.1564 175.114 41.8143C175.114 41.4721 174.974 41.1983 174.764 41.0615C174.624 40.9246 174.344 40.8562 173.924 40.7193C173.225 40.5824 172.735 40.4455 172.665 40.3771C171.965 40.1034 171.615 39.4874 171.615 38.6662C171.615 37.9819 171.825 37.5028 172.175 37.0922C172.595 36.75 173.085 36.5447 173.785 36.5447C174.694 36.5447 175.394 36.8185 175.744 37.4344C175.954 37.7766 176.094 38.1872 176.094 38.5978C176.094 38.6662 176.094 38.7347 176.094 38.7347H174.974C174.974 38.3925 174.834 38.1187 174.624 37.9134C174.414 37.7081 174.134 37.5712 173.785 37.5712C173.085 37.5712 172.735 37.9134 172.735 38.5293C172.735 38.94 172.945 39.2821 173.435 39.419C173.575 39.4874 173.994 39.5559 174.554 39.6928C175.114 39.8296 175.534 40.0349 175.814 40.3087C176.164 40.6509 176.304 41.0615 176.304 41.609Z" fill="white"/>
<path d="M181.903 41.3352C181.903 42.088 181.693 42.7039 181.203 43.183C180.714 43.662 180.154 43.9358 179.384 43.9358C178.404 43.9358 177.704 43.5252 177.284 42.7724C176.934 42.1565 176.724 41.3352 176.724 40.3087C176.724 39.3506 176.934 38.5294 177.284 37.845C177.774 37.0238 178.474 36.6132 179.384 36.6132C180.084 36.6132 180.714 36.8869 181.133 37.366C181.553 37.845 181.833 38.3925 181.833 39.1453H180.714C180.714 38.8031 180.574 38.5294 180.434 38.3241C180.224 37.9819 179.874 37.7766 179.384 37.7766C178.404 37.7766 177.984 38.6662 177.984 40.4456C177.984 41.0615 178.054 41.5405 178.194 41.9511C178.404 42.5671 178.754 42.8408 179.244 42.8408C180.084 42.8408 180.574 42.3618 180.644 41.4037H181.903V41.3352Z" fill="white"/>
<path d="M187.013 43.7305H182.603V36.75H186.873V37.845H183.863V39.5559H186.663V40.6509H183.863V42.6355H187.013V43.7305Z" fill="white"/>
<path d="M192.822 43.7305H191.422L190.162 40.993H188.972V43.7305H187.782V36.75H190.722C191.282 36.75 191.702 36.9553 192.052 37.366C192.332 37.7081 192.472 38.1872 192.472 38.8031C192.472 39.7612 192.052 40.4456 191.212 40.7877L192.822 43.7305ZM191.282 38.94C191.282 38.1872 191.072 37.845 190.582 37.845H188.972V39.8981H190.582C190.792 39.8981 190.932 39.7612 191.072 39.5559C191.212 39.3506 191.282 39.1453 191.282 38.94Z" fill="white"/>
</g>
<defs>
<clipPath id="clip0_205_89">
<rect width="205" height="49" fill="white"/>
</clipPath>
</defs>
</svg>
